<?xml version="1.0" standalone="no"?><!DOCTYPE svg PUBLIC "-//W3C//DTD SVG 1.1//EN" "http://www.w3.org/Graphics/SVG/1.1/DTD/svg11.dtd"><svg t="1786885018375" class="icon" viewBox="0 0 1024 1024" version="1.1" xmlns="http://www.w3.org/2000/svg" p-id="9285" xmlns:xlink="http://www.w3.org/1999/xlink" width="200" height="200"><path d="M62.060606 0v1024h899.878788V0z m850.230303 974.351515H111.709091V49.648485h800.581818z" fill="#FFCE00" p-id="9286"></path><path d="M467.192242 226.397091l-36.243394-33.76097-138.519272 148.697212-60.322909-64.54303-36.243394 33.76097 96.566303 103.517091 174.762666-187.671273zM582.62497 278.528h275.052606v49.648485H582.62497zM582.62497 691.851636h275.052606v49.648485H582.62497zM406.621091 601.739636l-79.685818 79.685819-79.685818-79.685819-35.250425 35.250425 79.934061 79.685818-79.934061 79.685818 35.250425 35.002182 79.685818-79.685818 79.685818 79.685818 35.002182-35.002182-79.685818-79.685818 79.685818-79.685818-35.002182-35.250425z" fill="#FFCE00" p-id="9287"></path></svg>